<svg xmlns="http://www.w3.org/2000/svg" viewBox="0 0 600 600">
  <path fill="#660066" d="M54.545 0C24.423 0 0 24.423 0 54.545v490.91C0 575.577 24.423 600 54.545 600h490.91C575.577 600 600 575.577 600 545.455V54.545C600 24.423 575.577 0 545.455 0z"/>
  <path fill="#ffffff" d="M490.908 109.092c-134.388-.315-221.488 73.637-302.216 185.63L49.09 256.37 0 338.184l120.682 60.34c-7.64 12.43-15.243 24.423-23.013 37.33l66.478 66.475c12.91-7.766 24.9-15.37 37.33-23.004L261.82 600l81.817-49.09-38.352-139.598c111.994-80.728 185.93-167.83 185.625-302.22zm-98.69 97.677c17.883 17.88 18.412 48.066.51 65.964-17.9 17.9-48.09 17.37-65.968-.52-17.884-17.882-17.39-47.042.51-64.944 17.9-17.904 47.06-18.395 64.944-.525zM82.333 453.247c-35.246 28.018-47.735 71.54-49.6 109.94l-.002 4.085h4.09c38.4-1.847 81.92-14.35 109.945-49.596l-5.112-5.114c-23.163 18.2-51.3 24.05-80.8 26.59 2.54-29.5 8.394-57.64 26.594-80.795l-5.115-5.11z"/>
</svg>
